<svg id="Camada_1" data-name="Camada 1" xmlns="http://www.w3.org/2000/svg" viewBox="0 0 40 40"><defs><style>.cls-1{fill:#9cc7d8;}.cls-2{fill:#608ba6;}.cls-3{fill:#436073;}.cls-4{fill:#2893c3;}.cls-5{fill:#61b8df;}.cls-6{fill:#8abcce;}.cls-7{fill:#194159;}.cls-8{fill:#f6fafc;}.cls-9{fill:#f3f9fc;}.cls-10{fill:#eef7fa;}.cls-11{fill:#f6f6f6;}.cls-12{fill:#2079a0;}.cls-13{fill:#217aa1;}</style></defs><title>octopus-logo</title><path class="cls-1" d="M592.8,129.2c0,.15.05.27.1.4a8.19,8.19,0,0,0,2.08,3.32,4.71,4.71,0,0,0,2,1.11,5.55,5.55,0,0,1,3.58,2.95,9.25,9.25,0,0,1,.93,5.06,10.83,10.83,0,0,1-.47,2.45,3.05,3.05,0,0,1-.13.32c-.07.14-.16.27-.35.26a.38.38,0,0,1-.36-.28.08.08,0,0,0,.09-.07,9.38,9.38,0,0,0,.25-1.82,8.87,8.87,0,0,0-.1-1.63,7.39,7.39,0,0,0-1-2.81,9.53,9.53,0,0,0-2-2.37,4.38,4.38,0,0,0-1.7-.88,11.78,11.78,0,0,1-1.39-.44,5.85,5.85,0,0,1-2.33-1.64l0-.13a4.38,4.38,0,0,0,0-.51,12.24,12.24,0,0,0-.8-3.19,11.28,11.28,0,0,0-1.17-2.16c0-.06-.06-.18-.19-.11s-.19.17-.23.27a4.29,4.29,0,0,0-.18,2.58c.14.65.4,1.27.6,1.9a3.75,3.75,0,0,1,.24,1.75,6.8,6.8,0,0,1-1.1,2.57,25.3,25.3,0,0,0-1.91,3.1,7.16,7.16,0,0,0-.71,2.46,5,5,0,0,0,1.21,3.59c.06.09.16.16.13.29a6.36,6.36,0,0,1-2.44-3.48,6.6,6.6,0,0,1,.83-5.41c.18-.28.34-.57.54-.83a6.56,6.56,0,0,0,1.19-4.24,9.28,9.28,0,0,0-.51-2.75,12.34,12.34,0,0,1-.55-2.55s0,0-.06,0l0,0a.63.63,0,0,0-.31.19,3.44,3.44,0,0,0-.88,1.7,17.48,17.48,0,0,0-.35,3.45A14.72,14.72,0,0,1,585,134a3.69,3.69,0,0,1-2.53,2.78,19.34,19.34,0,0,1-3,.7,11.57,11.57,0,0,0-3.37,1.09,5.85,5.85,0,0,0-3,3.85c0,.11,0,.26-.13.33a2.65,2.65,0,0,1-.1-1.71,4.52,4.52,0,0,1,1.8-2.92,6.91,6.91,0,0,1,2.3-1c1-.24,1.92-.48,2.88-.67a3.23,3.23,0,0,0,2.76-2.8,11.3,11.3,0,0,0,.11-3.48,5.33,5.33,0,0,1,.67-3.51l.38-.57c0-.07.06-.14-.07-.16s-.44-.08-.66-.1a5.94,5.94,0,0,0-2.18.3,3.56,3.56,0,0,0-1.42.73,4.28,4.28,0,0,0-1,1.85,12,12,0,0,1-1,2.48,3,3,0,0,1-2.68,1.48,14.11,14.11,0,0,1-2.89-.43,8.78,8.78,0,0,0-2.46-.22,2.37,2.37,0,0,0-2.11,1.51,7.32,7.32,0,0,0-.55,3.23.55.55,0,0,1-.61-.34,3.4,3.4,0,0,1-.34-1.85,5.22,5.22,0,0,1,1.47-3.22,3.14,3.14,0,0,1,2.26-.93,15.8,15.8,0,0,1,2.75.25,11.35,11.35,0,0,0,3.08.08,2,2,0,0,0,1.53-1,7.83,7.83,0,0,0,.69-2,8,8,0,0,1,1-2.53,4.25,4.25,0,0,1,3.49-1.93,4,4,0,0,1,1.38.19l.2.06s0-.06,0-.09a8.33,8.33,0,0,1-1.87-5,7.47,7.47,0,0,1,1.54-5.11,7.69,7.69,0,0,1,5.69-3,9,9,0,0,1,6.72,2,7.44,7.44,0,0,1,2.75,5,6.64,6.64,0,0,1-2,5.49,10.45,10.45,0,0,1-3.12,2.23l-.21.1a3.72,3.72,0,0,0,.53.45,8.83,8.83,0,0,0,3.43,1.69,3.79,3.79,0,0,0,3.94-1.16,4.31,4.31,0,0,0,.85-1.93,12.33,12.33,0,0,0,.13-3.64,62,62,0,0,0-1.15-7.14,18.36,18.36,0,0,1-.42-3.91,5.71,5.71,0,0,1,.55-2.56,2,2,0,0,1,.54-.74.39.39,0,0,1,0,.21,7.3,7.3,0,0,0-.26,3.62,19.36,19.36,0,0,0,.76,3.09c.3,1,.63,1.91.93,2.87.38,1.24.74,2.49,1.09,3.74a10.22,10.22,0,0,1,.4,4.62,8.1,8.1,0,0,1-1.55,3.66,6.36,6.36,0,0,1-2.54,2,8.5,8.5,0,0,1-3.53.67.5.5,0,0,0-.27,0,8.17,8.17,0,0,1-3.56-1.59l-.08-.06s0,0,0,0h0Zm-1.12-4.53a3.57,3.57,0,0,0,1.36-.23,7.85,7.85,0,0,0,2.86-1.83,4.42,4.42,0,0,0,1.5-4.09c-.06-.32-.17-.48-.45-.55a.64.64,0,0,0-.68.28l-.72,1a20.31,20.31,0,0,1-1.39,1.68,7.25,7.25,0,0,1-2.22,1.5,7.56,7.56,0,0,0-1.75,1,.51.51,0,0,0,.08.91A2.53,2.53,0,0,0,591.68,124.67Zm12,.5a1.33,1.33,0,0,0-.09-.59c-.08-.16-.18-.19-.33-.07a1.3,1.3,0,0,0-.31.39,13.43,13.43,0,0,1-1.54,2.23,4.52,4.52,0,0,1-1.67,1.21,4.82,4.82,0,0,1-1.36.32,9.4,9.4,0,0,1-2.37,0,13.76,13.76,0,0,1-2-.51,1.74,1.74,0,0,0-.63-.11.64.64,0,0,0-.55.31c-.11.19,0,.33.14.48a2,2,0,0,0,.62.55,6.63,6.63,0,0,0,4.11,1,8.38,8.38,0,0,0,2.13-.42,5.6,5.6,0,0,0,3.14-2.51A4.89,4.89,0,0,0,603.65,125.17Zm-1.93-8.81a15.23,15.23,0,0,0,.21,1.51.24.24,0,0,0,.29.21c.17,0,.28-.11.26-.28a1.1,1.1,0,0,0,0-.18c-.11-.45-.22-.9-.34-1.35,0-.13,0-.36-.19-.35s-.19.24-.21.39ZM570.15,131h.67a.18.18,0,0,0,.2-.19.19.19,0,0,0-.2-.2,2.79,2.79,0,0,0-1.31.19c-.06,0-.14,0-.12.12s.09.09.16.09ZM583,128.41a.22.22,0,0,0,.19.28.19.19,0,0,0,.23-.18,3.31,3.31,0,0,1,.24-.87s0-.11,0-.14-.11,0-.16,0A1.57,1.57,0,0,0,583,128.41Zm-1.49-4.65a3.35,3.35,0,0,0-1.25.28c-.12.07-.2.15-.11.28a.2.2,0,0,0,.33.05A5.83,5.83,0,0,1,581.47,123.76Zm18.43,13a.94.94,0,0,0-.37-.52c-.14-.09-.25,0-.23.12a2.21,2.21,0,0,0,.15.56.22.22,0,0,0,.28.1C599.85,137,599.9,136.9,599.9,136.75ZM593,126.5a.34.34,0,0,0,.34-.31.33.33,0,0,0-.34-.32.32.32,0,1,0,0,.63Zm8.84-12a.3.3,0,0,0-.31-.32.32.32,0,0,0-.33.3.31.31,0,0,0,.31.32A.3.3,0,0,0,601.8,114.51Zm-14.9,22.23c-.28,0-.4.12-.4.33s.1.27.29.28a.33.33,0,0,0,.32-.34C587.11,136.83,587,136.74,586.9,136.74Zm-1,2.3a.28.28,0,0,0-.28-.26.27.27,0,1,0,0,.53A.27.27,0,0,0,585.88,139ZM599,135.57c-.13,0-.22.07-.21.19a.29.29,0,0,0,.28.28.22.22,0,0,0,.25-.21C599.35,135.64,599.2,135.59,599,135.57Zm-27.32-4.85c-.14,0-.27.08-.27.23s.14.23.29.23.25-.08.25-.23S571.87,130.73,571.7,130.72Zm29.73-15.41a.19.19,0,0,0,.22.21c.14,0,.22-.07.22-.19a.2.2,0,0,0-.2-.24C601.51,115.08,601.45,115.17,601.43,115.31Zm-6.83,11.61a.2.2,0,0,0-.19.2.17.17,0,0,0,.18.18c.13,0,.23-.07.23-.19S594.73,126.93,594.6,126.92Zm5.33,10.27a.17.17,0,0,0-.17.16c0,.11.08.17.19.16a.14.14,0,0,0,.16-.16C600.1,137.25,600,137.2,599.93,137.19Zm-14,1.11a1.22,1.22,0,0,0,.27-.33c0-.07.07-.16,0-.2s-.16,0-.18.12S586,138.13,586,138.3Zm-2-11c.1,0,.16,0,.17-.13s-.05-.14-.15-.15-.17,0-.17.13S583.84,127.34,583.93,127.35Zm-1.87-3.4q.12,0,.12-.12a.1.1,0,0,0-.11-.12c-.1,0-.14,0-.14.13S582,123.94,582.06,124Zm11.72,2.81c.08,0,.13,0,.13-.11a.12.12,0,0,0-.11-.13.12.12,0,0,0-.13.11A.11.11,0,0,0,593.78,126.76Z" transform="translate(-565.72 -106.18)"/><path class="cls-2" d="M566.68,136.75a7.32,7.32,0,0,1,.55-3.23,2.37,2.37,0,0,1,2.11-1.51,8.78,8.78,0,0,1,2.46.22,14.11,14.11,0,0,0,2.89.43,3,3,0,0,0,2.68-1.48,12,12,0,0,0,1-2.48,4.28,4.28,0,0,1,1-1.85,3.56,3.56,0,0,1,1.42-.73,5.94,5.94,0,0,1,2.18-.3c.22,0,.44.07.66.1s.12.09.07.16l-.38.57a4.75,4.75,0,0,0-2.28.65.42.42,0,0,0-.15-.51.59.59,0,0,0-.59,0,1.21,1.21,0,0,0-.53.41.41.41,0,0,0,0,.48c.09.17.27.16.43.15s.21,0,.32,0a6.08,6.08,0,0,0-.8,1.76.35.35,0,0,1-.05-.08.44.44,0,0,0-.44-.38.5.5,0,0,0-.52.25,1.14,1.14,0,0,0-.19,1,.47.47,0,0,0,.38.38.53.53,0,0,0,.49-.22c0-.05.07-.12.16-.13a4.64,4.64,0,0,1-1.76,3.13,5,5,0,0,1-1.31.86.15.15,0,0,1,0-.09c.17-.42-.07-.76-.56-.75a1.34,1.34,0,0,0-1,.39.4.4,0,0,0,.23.71.68.68,0,0,1,.27.1,3.7,3.7,0,0,1-1.52.11,1.72,1.72,0,0,1-.67-.11l.1,0a.44.44,0,0,0,.16-.79,1.3,1.3,0,0,0-1.1-.3.42.42,0,0,0-.26.75s.1.08.1.15a11.8,11.8,0,0,1-1.75-.64c.06-.07.12,0,.18,0a.52.52,0,0,0,.47-.24.34.34,0,0,0-.13-.45,1.09,1.09,0,0,0-.92-.21.33.33,0,0,0-.2.56c.05.06.14.1.15.2l-.36-.08a1.41,1.41,0,0,0-1,.1c0-.11.1-.18.14-.27a.33.33,0,0,0-.08-.42.41.41,0,0,0-.46-.06,1,1,0,0,0-.62.65c-.08.27.1.45.4.41l.27,0a3.45,3.45,0,0,0-.45,1.27s0,.09,0,.12c-.38-.27-.59-.24-.76.11a.85.85,0,0,0-.06.17c-.12.4.09.62.52.55A1,1,0,0,1,566.68,136.75Zm10.58-4.19c0,.32.21.53.48.46a1.24,1.24,0,0,0,.94-.77.41.41,0,0,0-.08-.48.53.53,0,0,0-.54-.15A1.23,1.23,0,0,0,577.26,132.56Z" transform="translate(-565.72 -106.18)"/><path class="cls-2" d="M572.92,142.71c.16-.07.11-.22.13-.33a5.85,5.85,0,0,1,3-3.85,11.57,11.57,0,0,1,3.37-1.09,19.34,19.34,0,0,0,3-.7A3.69,3.69,0,0,0,585,134a14.72,14.72,0,0,0,.25-2.29,17.48,17.48,0,0,1,.35-3.45,3.44,3.44,0,0,1,.88-1.7.63.63,0,0,1,.31-.19,7.45,7.45,0,0,0-.36,3.5,1.79,1.79,0,0,1,0,.4l-.17,0a.52.52,0,0,0-.71.41,1,1,0,0,0,.11.77.59.59,0,0,0,.82.33,7.18,7.18,0,0,1,0,1.39l-.11-.05a.53.53,0,0,0-.88.23,1.13,1.13,0,0,0,0,.81.61.61,0,0,0,.41.43c.17.05.28-.1.43-.08a4.28,4.28,0,0,1-.64,1.81c-.22-.34-.42-.44-.71-.37a1.29,1.29,0,0,0-.79.91c0,.36.18.53.57.48h.18a3.63,3.63,0,0,1-1.55,1c0-.07,0-.13.07-.19a.48.48,0,0,0-.32-.64,1.4,1.4,0,0,0-1.25.4.39.39,0,0,0,.19.65l.36.1a7.41,7.41,0,0,1-1.75.33.32.32,0,0,1,0-.09c.24-.39.11-.69-.35-.8a1.38,1.38,0,0,0-1.12.27.38.38,0,0,0,.06.65c.07,0,.17,0,.18.14l-1.7.33c0-.12.14-.17.21-.26a.35.35,0,0,0-.19-.56,1,1,0,0,0-1,.42.33.33,0,0,0,.28.5c.08,0,.18,0,.25,0l-1.2.59a.76.76,0,0,1,0-.11c.07-.16.1-.31-.07-.44a.49.49,0,0,0-.53,0,1.22,1.22,0,0,0-.46.41c-.24.35-.14.72.42.65a11.36,11.36,0,0,0-.94,1c-.07,0-.12-.05-.18-.08a.35.35,0,0,0-.46.09.8.8,0,0,0-.21.52.36.36,0,0,0,.36.4,1.32,1.32,0,0,1-.12.2C573.54,143.16,573.16,143.13,572.92,142.71Z" transform="translate(-565.72 -106.18)"/><path class="cls-2" d="M596.44,130.85a.5.5,0,0,1,.27,0,8.5,8.5,0,0,0,3.53-.67,6.36,6.36,0,0,0,2.54-2,8.1,8.1,0,0,0,1.55-3.66,10.22,10.22,0,0,0-.4-4.62c-.35-1.25-.71-2.5-1.09-3.74-.3-1-.63-1.91-.93-2.87a19.36,19.36,0,0,1-.76-3.09,7.3,7.3,0,0,1,.26-3.62.39.39,0,0,0,0-.21h0l0,0h0s0,0,0,0,.06-.1.13-.08.06.08.06.13c0,.36,0,.71,0,1.07s0,1,0,1.43a.53.53,0,0,0-.39.45c0,.3.14.86.57.88l.37,1c-.07.1-.17.17-.2.29a1.13,1.13,0,0,0,.32,1,.58.58,0,0,0,.48.2l.36,1a.49.49,0,0,0-.52.38,1.06,1.06,0,0,0,.06.7c.17.49.46.6.94.4a8.4,8.4,0,0,1,.38,1.1,1.57,1.57,0,0,0,.09.23c-.3,0-.5.17-.54.42a1.1,1.1,0,0,0,.27,1c.22.24.36.26.67.12a16.06,16.06,0,0,1,.39,1.63.56.56,0,0,0-.5.45,1.62,1.62,0,0,0,0,.44c.08.44.37.8.78.72,0,.51.13,1,.11,1.53-.42,0-.6.11-.68.4a1.16,1.16,0,0,0,0,.76.58.58,0,0,0,.66.46,4.7,4.7,0,0,1-.13,1.12c-.34-.15-.61-.13-.78.09a1.11,1.11,0,0,0-.28.77c0,.48.14.62.64.61a4,4,0,0,1-.7,1.25.54.54,0,0,0-.63-.14.74.74,0,0,0-.31,1.16,5.7,5.7,0,0,1-2.06,1.34,7.66,7.66,0,0,1-4.47.31Z" transform="translate(-565.72 -106.18)"/><path class="cls-2" d="M587.8,145.54c0-.13-.07-.2-.13-.29a5,5,0,0,1-1.21-3.59,7.16,7.16,0,0,1,.71-2.46,25.3,25.3,0,0,1,1.91-3.1,6.8,6.8,0,0,0,1.1-2.57,3.75,3.75,0,0,0-.24-1.75c-.2-.63-.46-1.25-.6-1.9a4.29,4.29,0,0,1,.18-2.58c0-.1.05-.25.23-.27a5.36,5.36,0,0,0,.33,1.81c.16.45.35.89.53,1.34-.35-.06-.54,0-.63.17a.91.91,0,0,0,.37,1,.35.35,0,0,0,.47-.12c.08-.11,0-.24.13-.34a9.61,9.61,0,0,1,.36,1.19c0,.17,0,.25-.25.21a.51.51,0,0,0-.54.38,1.19,1.19,0,0,0,.05.83c.1.2.21.4.5.39.12,0,.14.06.13.15a1.17,1.17,0,0,1-.05.2c-.1.13-.07.31-.16.44a.82.82,0,0,0-.81.62c-.15.4-.13.77.23,1a4.77,4.77,0,0,1-.32.69c-.44-.16-.65-.15-.85.08a1.46,1.46,0,0,0-.32.6c-.11.42,0,.68.44.75l-.37.7c-.46-.21-.72-.17-1,.2a1.16,1.16,0,0,0-.22.7c0,.33.12.46.47.54l-.23.64c-.37,0-.51.05-.62.29a1.19,1.19,0,0,0-.06.59.42.42,0,0,0,.48.4l0,.46c-.47.08-.52.28-.43.69s.39.69.81.57a1.2,1.2,0,0,1,.18.4c-.34.12-.32.38-.21.63a.57.57,0,0,0,.74.36.77.77,0,0,1,.19.37c.06.19,0,.27-.22.21a3.27,3.27,0,0,1-1.07-.58c0-.07,0,0-.05-.05Z" transform="translate(-565.72 -106.18)"/><path class="cls-2" d="M592,133.13a5.85,5.85,0,0,0,2.33,1.64,11.78,11.78,0,0,0,1.39.44,4.38,4.38,0,0,1,1.7.88,9.53,9.53,0,0,1,2,2.37,7.39,7.39,0,0,1,1,2.81,8.87,8.87,0,0,1,.1,1.63,9.38,9.38,0,0,1-.25,1.82.08.08,0,0,1-.09.07c-.15-.11-.16-.29-.23-.44a.45.45,0,0,0,.41-.54c-.06-.34-.14-.58-.53-.54a.8.8,0,0,1-.06-.37c.38,0,.55-.17.55-.51a1.12,1.12,0,0,0-.15-.53.44.44,0,0,0-.66-.21l-.19-.56a.4.4,0,0,0,.43-.21.8.8,0,0,0-.22-.87c-.23-.24-.31-.25-.7-.12a2.34,2.34,0,0,1-.27-.49c.35-.27.4-.46.22-.84a1.24,1.24,0,0,0-.35-.44.62.62,0,0,0-.86-.08c-.21-.12-.31-.35-.54-.44.3-.28.32-.46.09-.77a1.35,1.35,0,0,0-.67-.46c-.33-.11-.73-.06-.78.43l-.75-.21c.18-.41.13-.57-.22-.81a1.73,1.73,0,0,0-.57-.22c-.52-.11-.84.16-.75.62a3,3,0,0,1-1.75-1.15c.11-.06.08-.18.12-.28s.07.12.1.18a1,1,0,0,0,.45.51.39.39,0,0,0,.47-.06.38.38,0,0,0,.13-.46,1.32,1.32,0,0,0-.47-.55.67.67,0,0,0-.62,0C591.94,133.93,591.93,133.53,592,133.13Z" transform="translate(-565.72 -106.18)"/><path class="cls-3" d="M592,133.13c-.07.4-.06.8-.17,1.23a.67.67,0,0,1,.62,0,1.32,1.32,0,0,1,.47.55.38.38,0,0,1-.13.46.39.39,0,0,1-.47.06,1,1,0,0,1-.45-.51c0-.06,0-.14-.1-.18s0,.22-.12.28c-.23-.22-.29-.52-.5-.76a1.17,1.17,0,0,0,.05-.2c0-.09,0-.15-.13-.15-.29,0-.4-.19-.5-.39a1.19,1.19,0,0,1-.05-.83.51.51,0,0,1,.54-.38c.23,0,.26,0,.24-.21.09,0,.11.14.16.21a4.49,4.49,0,0,0,.49.68Zm-1.2-.11a.7.7,0,0,0,.13.49.28.28,0,0,0,.27.13.25.25,0,0,0,.22-.19.72.72,0,0,0,0-.46c-.09-.32-.19-.45-.4-.41S590.83,132.87,590.8,133Zm1.9,2.06a.85.85,0,0,0-.46-.54c-.16,0-.27,0-.29.18a.68.68,0,0,0,.43.58A.23.23,0,0,0,592.7,135.08Z" transform="translate(-565.72 -106.18)"/><path class="cls-3" d="M575.46,134.66a.68.68,0,0,0-.27-.1.4.4,0,0,1-.23-.71,1.34,1.34,0,0,1,1-.39c.49,0,.73.33.56.75a.15.15,0,0,0,0,.09A2.78,2.78,0,0,1,575.46,134.66Zm.43-.88a.86.86,0,0,0-.62.2c-.2.17-.14.38.11.46a.94.94,0,0,0,.64-.09c.17-.06.32-.19.28-.37S576.07,133.76,575.89,133.78Z" transform="translate(-565.72 -106.18)"/><path class="cls-3" d="M588.27,140.55c-.35-.08-.46-.21-.47-.54a1.16,1.16,0,0,1,.22-.7c.25-.37.51-.41,1-.2A1.07,1.07,0,0,1,588.27,140.55Zm-.12-.62c0,.14,0,.29.16.35s.28-.07.38-.17a.76.76,0,0,0,.21-.55.27.27,0,0,0-.2-.29.27.27,0,0,0-.32.11A.73.73,0,0,0,588.15,139.93Z" transform="translate(-565.72 -106.18)"/><path class="cls-3" d="M604.5,118c-.31.14-.45.12-.67-.12a1.1,1.1,0,0,1-.27-1c0-.25.24-.39.54-.42a.51.51,0,0,1,.46.3A1.07,1.07,0,0,1,604.5,118Zm.08-.62a1.07,1.07,0,0,0-.17-.52.29.29,0,0,0-.5,0,.91.91,0,0,0,.15.81.26.26,0,0,0,.45-.06A1.27,1.27,0,0,0,604.58,117.38Z" transform="translate(-565.72 -106.18)"/><path class="cls-3" d="M603.63,115.14c-.48.2-.77.09-.94-.4a1.06,1.06,0,0,1-.06-.7.49.49,0,0,1,.52-.38.52.52,0,0,1,.48.3A1.24,1.24,0,0,1,603.63,115.14Zm-.69-.86a.74.74,0,0,0,.16.57.32.32,0,0,0,.31.1c.12,0,.14-.11.18-.2a.73.73,0,0,0-.05-.58c-.07-.15-.17-.3-.38-.27S602.92,114.11,602.94,114.28Z" transform="translate(-565.72 -106.18)"/><path class="cls-3" d="M593.4,136.18c-.09-.46.23-.73.75-.62a1.73,1.73,0,0,1,.57.22c.35.24.4.4.22.81a1.1,1.1,0,0,1-1.34-.21C593.53,136.32,593.47,136.25,593.4,136.18Zm.6-.32c-.13,0-.26,0-.33.12a.23.23,0,0,0,0,.28.92.92,0,0,0,.82.29.23.23,0,0,0,.16-.4A.94.94,0,0,0,594,135.86Z" transform="translate(-565.72 -106.18)"/><path class="cls-3" d="M584.81,137.25h-.18c-.39.05-.6-.12-.57-.48a1.29,1.29,0,0,1,.79-.91c.29-.07.49,0,.71.37A1.52,1.52,0,0,1,584.81,137.25Zm.5-.82a.27.27,0,0,0-.4-.25.9.9,0,0,0-.52.58.24.24,0,0,0,.28.3A.84.84,0,0,0,585.31,136.43Z" transform="translate(-565.72 -106.18)"/><path class="cls-3" d="M579.54,130.31c-.09,0-.11.08-.16.13a.53.53,0,0,1-.49.22.47.47,0,0,1-.38-.38,1.14,1.14,0,0,1,.19-1,.5.5,0,0,1,.52-.25.44.44,0,0,1,.44.38.35.35,0,0,0,.05.08A3.51,3.51,0,0,1,579.54,130.31Zm-.73-.33a.74.74,0,0,0,0,.21.26.26,0,0,0,.43.14.82.82,0,0,0,.24-.78.27.27,0,0,0-.24-.21.28.28,0,0,0-.29.14A.74.74,0,0,0,578.81,130Z" transform="translate(-565.72 -106.18)"/><path class="cls-3" d="M604.73,127c-.5,0-.64-.13-.64-.61a1.11,1.11,0,0,1,.28-.77c.17-.22.44-.24.78-.09a1,1,0,0,1-.26,1.33Zm.41-.93a.31.31,0,0,0-.16-.34.25.25,0,0,0-.27,0,.81.81,0,0,0-.3.76.26.26,0,0,0,.47.13A.77.77,0,0,0,605.14,126.05Z" transform="translate(-565.72 -106.18)"/><path class="cls-3" d="M582.31,138.59l-.36-.1a.39.39,0,0,1-.19-.65,1.4,1.4,0,0,1,1.25-.4.48.48,0,0,1,.32.64c0,.06-.05.12-.07.19A3.23,3.23,0,0,1,582.31,138.59Zm.42-.88a1,1,0,0,0-.67.26c-.16.17-.11.33.12.41a.86.86,0,0,0,.73-.15c.13-.07.25-.18.18-.34A.31.31,0,0,0,582.73,137.71Z" transform="translate(-565.72 -106.18)"/><path class="cls-3" d="M579.36,139.09c0-.1-.11-.1-.18-.14a.38.38,0,0,1-.06-.65,1.38,1.38,0,0,1,1.12-.27c.46.11.59.41.35.8a.32.32,0,0,0,0,.09A2.85,2.85,0,0,1,579.36,139.09Zm.64-.77a.88.88,0,0,0-.6.16.23.23,0,0,0,0,.39.94.94,0,0,0,.89-.07c.09-.07.18-.14.14-.27a.32.32,0,0,0-.3-.21Z" transform="translate(-565.72 -106.18)"/><path class="cls-3" d="M586.43,131.7a.59.59,0,0,1-.82-.33,1,1,0,0,1-.11-.77.52.52,0,0,1,.71-.41l.17,0a1.37,1.37,0,0,1,.23,1A3.25,3.25,0,0,1,586.43,131.7Zm.07-.8c0-.09,0-.18,0-.26a.33.33,0,0,0-.25-.23.27.27,0,0,0-.28.16.75.75,0,0,0,0,.79q.15.24.39.06C586.47,131.28,586.44,131.07,586.5,130.9Z" transform="translate(-565.72 -106.18)"/><path class="cls-3" d="M589.36,138.41c-.4-.07-.55-.33-.44-.75a1.46,1.46,0,0,1,.32-.6c.2-.23.41-.24.85-.08A1,1,0,0,1,589.36,138.41Zm.64-1a.25.25,0,0,0-.16-.29c-.16-.07-.24,0-.34.12a.88.88,0,0,0-.29.57.28.28,0,0,0,.15.3.29.29,0,0,0,.32-.06A.75.75,0,0,0,590,137.44Z" transform="translate(-565.72 -106.18)"/><path class="cls-3" d="M595.69,136.8c0-.49.45-.54.78-.43a1.35,1.35,0,0,1,.67.46c.23.31.21.49-.09.77a.68.68,0,0,1-.7-.06A1.48,1.48,0,0,1,595.69,136.8Zm.54-.15c-.25,0-.35.14-.25.35a1,1,0,0,0,.61.47c.22.06.43-.11.39-.29A.87.87,0,0,0,596.23,136.65Z" transform="translate(-565.72 -106.18)"/><path class="cls-3" d="M590.41,136.29c-.36-.19-.38-.56-.23-1a.82.82,0,0,1,.81-.62.59.59,0,0,1,.36.71,1.11,1.11,0,0,1-.62.84A.58.58,0,0,1,590.41,136.29Zm.79-1A.36.36,0,0,0,591,135c-.14-.06-.22,0-.31.1a.89.89,0,0,0-.26.63.27.27,0,0,0,.18.28c.14.05.23,0,.33-.1A1,1,0,0,0,591.2,135.33Z" transform="translate(-565.72 -106.18)"/><path class="cls-3" d="M602.79,112.69a.58.58,0,0,1-.48-.2,1.13,1.13,0,0,1-.32-1c0-.12.13-.19.2-.29a.65.65,0,0,1,.9.44,1.17,1.17,0,0,1,.09.61A.49.49,0,0,1,602.79,112.69ZM603,112a1.08,1.08,0,0,0-.21-.5.33.33,0,0,0-.37-.12c-.14,0-.16.15-.17.27a.88.88,0,0,0,.17.56.32.32,0,0,0,.37.17C603,112.31,603,112.16,603,112Z" transform="translate(-565.72 -106.18)"/><path class="cls-3" d="M586.2,134.43c-.15,0-.26.13-.43.08a.61.61,0,0,1-.41-.43,1.13,1.13,0,0,1,0-.81.53.53,0,0,1,.88-.23l.11.05A1.59,1.59,0,0,1,586.2,134.43Zm.1-.79a.49.49,0,0,0-.06-.33.28.28,0,0,0-.46-.07.9.9,0,0,0-.07.84.26.26,0,0,0,.47,0A.64.64,0,0,0,586.3,133.64Z" transform="translate(-565.72 -106.18)"/><path class="cls-3" d="M605.28,124.39a.58.58,0,0,1-.66-.46,1.16,1.16,0,0,1,0-.76c.08-.29.26-.39.68-.4A1,1,0,0,1,605.28,124.39Zm.26-.79a.7.7,0,0,0,0-.36.32.32,0,0,0-.32-.21.29.29,0,0,0-.26.25,1,1,0,0,0,.06.65.28.28,0,0,0,.26.18.27.27,0,0,0,.25-.18A.66.66,0,0,0,605.54,123.6Z" transform="translate(-565.72 -106.18)"/><path class="cls-3" d="M597.59,138a.62.62,0,0,1,.86.08,1.24,1.24,0,0,1,.35.44c.18.38.13.57-.22.84a1,1,0,0,1-1-.9A1.41,1.41,0,0,1,597.59,138Zm1,.81a.82.82,0,0,0-.41-.58c-.23-.13-.46,0-.44.2a.87.87,0,0,0,.42.68C598.35,139.28,598.55,139.17,598.55,138.85Z" transform="translate(-565.72 -106.18)"/><path class="cls-3" d="M572.27,134.42c0-.07-.06-.11-.1-.15a.42.42,0,0,1,.26-.75,1.3,1.3,0,0,1,1.1.3.44.44,0,0,1-.16.79l-.1,0A2.58,2.58,0,0,1,572.27,134.42Zm.77.06a.34.34,0,0,0,.35-.15.21.21,0,0,0,0-.24,1,1,0,0,0-.9-.27c-.21.07-.27.22-.12.39A.94.94,0,0,0,573,134.48Z" transform="translate(-565.72 -106.18)"/><path class="cls-3" d="M605.18,121.24c-.41.08-.7-.28-.78-.72a1.62,1.62,0,0,1,0-.44.56.56,0,0,1,.5-.45.7.7,0,0,1,.63.69C605.56,120.67,605.61,121,605.18,121.24Zm.22-.7a.85.85,0,0,0-.14-.49.32.32,0,0,0-.34-.14c-.15,0-.2.13-.22.25a.8.8,0,0,0,.19.69.23.23,0,0,0,.25.11.28.28,0,0,0,.23-.2A1.66,1.66,0,0,0,605.4,120.54Z" transform="translate(-565.72 -106.18)"/><path class="cls-3" d="M580.51,127.77c-.11,0-.21,0-.32,0s-.34,0-.43-.15a.41.41,0,0,1,0-.48,1.21,1.21,0,0,1,.53-.41.59.59,0,0,1,.59,0,.42.42,0,0,1,.15.51A2.45,2.45,0,0,1,580.51,127.77Zm-.29-.1a.83.83,0,0,0,.62-.37c.09-.21,0-.34-.25-.32a.77.77,0,0,0-.59.4C579.92,127.53,580,127.67,580.22,127.67Z" transform="translate(-565.72 -106.18)"/><path class="cls-3" d="M598.85,139.89c.39-.13.47-.12.7.12a.8.8,0,0,1,.22.87.4.4,0,0,1-.43.21.84.84,0,0,1-.52-1A2.13,2.13,0,0,0,598.85,139.89Zm.09.46a.62.62,0,0,0,.18.44.23.23,0,0,0,.43-.13.68.68,0,0,0-.15-.45.27.27,0,0,0-.31-.13A.23.23,0,0,0,598.94,140.35Z" transform="translate(-565.72 -106.18)"/><path class="cls-3" d="M599.53,141.65a.44.44,0,0,1,.66.21,1.12,1.12,0,0,1,.15.53c0,.34-.17.5-.55.51A1,1,0,0,1,599.53,141.65Zm0,.52a.56.56,0,0,0,.13.41c.16.16.31.12.39-.08a.5.5,0,0,0,0-.38c0-.15-.12-.3-.31-.28S599.54,142,599.54,142.17Z" transform="translate(-565.72 -106.18)"/><path class="cls-3" d="M577.16,139.57c-.07-.08-.17,0-.25,0a.33.33,0,0,1-.28-.5,1,1,0,0,1,1-.42.35.35,0,0,1,.19.56c-.07.09-.19.14-.21.26Zm0-.18a.64.64,0,0,0,.51-.27c.1-.14,0-.27-.16-.3a.83.83,0,0,0-.57.18.23.23,0,0,0-.1.29C576.92,139.4,577,139.38,577.19,139.39Z" transform="translate(-565.72 -106.18)"/><path class="cls-3" d="M601.82,110.14c-.43,0-.6-.58-.57-.88a.53.53,0,0,1,.39-.45c.34,0,.48.17.54.49A.68.68,0,0,1,601.82,110.14Zm-.28-.77a.47.47,0,0,0,.2.49.2.2,0,0,0,.23,0,.45.45,0,0,0,.07-.52c0-.14-.12-.29-.32-.25S601.54,109.23,601.54,109.37Z" transform="translate(-565.72 -106.18)"/><path class="cls-3" d="M575.36,140.63c-.56.07-.66-.3-.42-.65a1.22,1.22,0,0,1,.46-.41.49.49,0,0,1,.53,0c.17.13.14.28.07.44a.76.76,0,0,0,0,.11A3,3,0,0,1,575.36,140.63Zm-.05-.18c.23,0,.56-.3.55-.51s-.1-.19-.23-.19a.65.65,0,0,0-.52.52C575.11,140.39,575.17,140.45,575.31,140.45Z" transform="translate(-565.72 -106.18)"/><path class="cls-3" d="M570.07,133.63c0-.1-.1-.14-.15-.2a.33.33,0,0,1,.2-.56,1.09,1.09,0,0,1,.92.21.34.34,0,0,1,.13.45.52.52,0,0,1-.47.24c-.06,0-.12-.06-.18,0A1.83,1.83,0,0,1,570.07,133.63Zm.33-.54c-.14,0-.28,0-.35.13s0,.15.07.21a.84.84,0,0,0,.56.21.28.28,0,0,0,.28-.19c0-.12-.06-.19-.15-.24A.6.6,0,0,0,570.4,133.09Z" transform="translate(-565.72 -106.18)"/><path class="cls-3" d="M603.09,129.25a.74.74,0,0,1,.31-1.16.54.54,0,0,1,.63.14A.94.94,0,0,1,603.09,129.25Zm.54-1c-.24,0-.56.43-.47.63a.2.2,0,0,0,.29.12.69.69,0,0,0,.42-.51C603.9,128.37,603.81,128.27,603.63,128.28Z" transform="translate(-565.72 -106.18)"/><path class="cls-3" d="M587.84,142.47a.42.42,0,0,1-.48-.4,1.19,1.19,0,0,1,.06-.59c.11-.24.25-.3.62-.29A.78.78,0,0,1,587.84,142.47Zm-.25-.59a.85.85,0,0,0,0,.22.21.21,0,0,0,.38.06.64.64,0,0,0,.12-.59.21.21,0,0,0-.2-.18.24.24,0,0,0-.24.13A.75.75,0,0,0,587.59,141.88Z" transform="translate(-565.72 -106.18)"/><path class="cls-3" d="M568.37,133.92l-.27,0c-.3,0-.48-.14-.4-.41a1,1,0,0,1,.62-.65.41.41,0,0,1,.46.06.33.33,0,0,1,.08.42c0,.09-.13.16-.14.27Zm.35-.59a.21.21,0,0,0-.26-.23.74.74,0,0,0-.51.49c0,.15.06.22.2.23A.79.79,0,0,0,568.72,133.33Z" transform="translate(-565.72 -106.18)"/><path class="cls-3" d="M588.24,144.19c-.42.12-.69-.05-.81-.57s0-.61.43-.69A.92.92,0,0,1,588.24,144.19Zm-.59-.77a.65.65,0,0,0,.14.42.23.23,0,0,0,.45-.13.87.87,0,0,0-.16-.43c-.07-.08-.15-.16-.28-.12S587.64,143.3,587.65,143.42Z" transform="translate(-565.72 -106.18)"/><path class="cls-3" d="M573.93,142.58a.36.36,0,0,1-.36-.4.8.8,0,0,1,.21-.52.35.35,0,0,1,.46-.09c.06,0,.11.08.18.08s0,.3,0,.45A.7.7,0,0,1,573.93,142.58Zm.34-.62c0-.11,0-.22-.14-.25s-.2.07-.25.15a1,1,0,0,0-.1.31.18.18,0,0,0,.12.2.2.2,0,0,0,.23-.06A.43.43,0,0,0,574.27,142Z" transform="translate(-565.72 -106.18)"/><path class="cls-3" d="M589,145.58a.57.57,0,0,1-.74-.36c-.11-.25-.13-.51.21-.63A.69.69,0,0,1,589,145.58Zm-.05-.37c0-.2-.19-.45-.35-.45s-.19.07-.2.19.2.44.37.44S588.91,145.33,588.9,145.21Z" transform="translate(-565.72 -106.18)"/><path class="cls-3" d="M567.57,136.14c-.43.07-.64-.15-.52-.55a.85.85,0,0,1,.06-.17c.17-.35.38-.38.76-.11A1.43,1.43,0,0,1,567.57,136.14Zm.15-.56c0-.12,0-.23-.16-.26s-.21.07-.26.17a.68.68,0,0,0-.07.2c0,.12,0,.26.15.3s.21-.07.26-.16A.44.44,0,0,0,567.72,135.58Z" transform="translate(-565.72 -106.18)"/><path class="cls-3" d="M599.85,143.27c.39,0,.47.2.53.54a.45.45,0,0,1-.41.54c-.25,0-.33-.19-.36-.38A.88.88,0,0,1,599.85,143.27Zm.29.55c0-.16,0-.35-.22-.34s-.22.21-.22.36,0,.35.24.34S600.14,144,600.14,143.82Z" transform="translate(-565.72 -106.18)"/><path class="cls-4" d="M587.8,145.53s.1,0,.05.05Z" transform="translate(-565.72 -106.18)"/><path class="cls-4" d="M601.5,106.26s0,0,0,0h0Z" transform="translate(-565.72 -106.18)"/><path class="cls-4" d="M601.49,106.3l0,0S601.45,106.3,601.49,106.3Z" transform="translate(-565.72 -106.18)"/><path class="cls-5" d="M586.8,126.28s0,0,.06,0Z" transform="translate(-565.72 -106.18)"/><path class="cls-6" d="M603.65,125.17a4.89,4.89,0,0,1-.72,2.27,5.6,5.6,0,0,1-3.14,2.51,8.38,8.38,0,0,1-2.13.42,6.63,6.63,0,0,1-4.11-1,2,2,0,0,1-.62-.55c-.11-.15-.25-.29-.14-.48a.64.64,0,0,1,.55-.31,1.74,1.74,0,0,1,.63.11,13.76,13.76,0,0,0,2,.51,9.4,9.4,0,0,0,2.37,0,4.82,4.82,0,0,0,1.36-.32,4.52,4.52,0,0,0,1.67-1.21,13.43,13.43,0,0,0,1.54-2.23,1.3,1.3,0,0,1,.31-.39c.15-.12.25-.09.33.07A1.33,1.33,0,0,1,603.65,125.17Z" transform="translate(-565.72 -106.18)"/><path class="cls-7" d="M592,133a4.49,4.49,0,0,1-.49-.68c-.05-.07-.07-.16-.16-.21a8.13,8.13,0,0,0-.35-1.19,1.85,1.85,0,0,0-.34-.74c-.18-.45-.37-.89-.53-1.34a5.36,5.36,0,0,1-.33-1.81c.13-.07.15,0,.19.11a11.28,11.28,0,0,1,1.17,2.16,12.24,12.24,0,0,1,.8,3.19A4.38,4.38,0,0,1,592,133Z" transform="translate(-565.72 -106.18)"/><path class="cls-8" d="M601.72,116.36v0c0-.15,0-.38.21-.39s.15.22.19.35c.12.45.23.9.34,1.35a1.1,1.1,0,0,1,0,.18c0,.17-.09.26-.26.28a.24.24,0,0,1-.29-.21A15.23,15.23,0,0,1,601.72,116.36Z" transform="translate(-565.72 -106.18)"/><path class="cls-9" d="M599.9,136.75c0,.15,0,.23-.17.26a.22.22,0,0,1-.28-.1,2.21,2.21,0,0,1-.15-.56c0-.13.09-.21.23-.12A.94.94,0,0,1,599.9,136.75Z" transform="translate(-565.72 -106.18)"/><path class="cls-9" d="M593,126.5a.32.32,0,1,1,0-.63.33.33,0,0,1,.34.32A.34.34,0,0,1,593,126.5Z" transform="translate(-565.72 -106.18)"/><path class="cls-8" d="M601.8,114.51a.3.3,0,0,1-.33.3.31.31,0,0,1-.31-.32.32.32,0,0,1,.33-.3A.3.3,0,0,1,601.8,114.51Z" transform="translate(-565.72 -106.18)"/><path class="cls-8" d="M586.9,136.74c.11,0,.21.09.21.27a.33.33,0,0,1-.32.34c-.19,0-.29-.1-.29-.28S586.62,136.74,586.9,136.74Z" transform="translate(-565.72 -106.18)"/><path class="cls-8" d="M585.88,139a.27.27,0,0,1-.29.27.27.27,0,1,1,0-.53A.28.28,0,0,1,585.88,139Z" transform="translate(-565.72 -106.18)"/><path class="cls-10" d="M599,135.57c.18,0,.33.07.32.26a.22.22,0,0,1-.25.21.29.29,0,0,1-.28-.28C598.8,135.64,598.89,135.57,599,135.57Z" transform="translate(-565.72 -106.18)"/><path class="cls-9" d="M601.43,115.31c0-.14.08-.23.24-.22a.2.2,0,0,1,.2.24c0,.12-.08.19-.22.19A.19.19,0,0,1,601.43,115.31Z" transform="translate(-565.72 -106.18)"/><path class="cls-10" d="M594.6,126.92c.13,0,.22.07.22.19s-.1.19-.23.19a.17.17,0,0,1-.18-.18A.2.2,0,0,1,594.6,126.92Z" transform="translate(-565.72 -106.18)"/><path class="cls-10" d="M599.93,137.19c.11,0,.17.06.18.16a.14.14,0,0,1-.16.16c-.11,0-.2,0-.19-.16A.17.17,0,0,1,599.93,137.19Z" transform="translate(-565.72 -106.18)"/><path class="cls-10" d="M586,138.3c0-.17,0-.29.06-.41s.07-.15.18-.12.08.13,0,.2A1.22,1.22,0,0,1,586,138.3Z" transform="translate(-565.72 -106.18)"/><path class="cls-10" d="M593.78,126.76a.11.11,0,0,1-.11-.13.12.12,0,0,1,.13-.11.12.12,0,0,1,.11.13C593.91,126.73,593.86,126.76,593.78,126.76Z" transform="translate(-565.72 -106.18)"/><path class="cls-11" d="M592.8,129.2l0,0h0s0,0,0,0Z" transform="translate(-565.72 -106.18)"/><path class="cls-3" d="M577.26,132.56a1.23,1.23,0,0,1,.8-.94.53.53,0,0,1,.54.15.41.41,0,0,1,.08.48,1.24,1.24,0,0,1-.94.77C577.47,133.09,577.26,132.88,577.26,132.56Zm1.25-.42a.25.25,0,0,0-.34-.23.88.88,0,0,0-.6.6c-.05.19.06.31.26.3A.82.82,0,0,0,578.51,132.14Z" transform="translate(-565.72 -106.18)"/><path class="cls-3" d="M590.61,130.18a1.85,1.85,0,0,1,.34.74c-.08.1-.05.23-.13.34a.35.35,0,0,1-.47.12.91.91,0,0,1-.37-1C590.07,130.17,590.26,130.12,590.61,130.18Zm.19.71c-.07-.19-.06-.41-.28-.52a.2.2,0,0,0-.32.12.76.76,0,0,0,.12.53.25.25,0,0,0,.3.15C590.76,131.13,590.76,131,590.8,130.89Z" transform="translate(-565.72 -106.18)"/><path class="cls-12" d="M590.8,133c0-.15,0-.38.26-.44s.31.09.4.41a.72.72,0,0,1,0,.46.25.25,0,0,1-.22.19.28.28,0,0,1-.27-.13A.7.7,0,0,1,590.8,133Z" transform="translate(-565.72 -106.18)"/><path class="cls-13" d="M592.7,135.08a.23.23,0,0,1-.32.22.68.68,0,0,1-.43-.58c0-.16.13-.21.29-.18A.85.85,0,0,1,592.7,135.08Z" transform="translate(-565.72 -106.18)"/><path class="cls-12" d="M575.89,133.78c.18,0,.37,0,.41.2s-.11.31-.28.37a.94.94,0,0,1-.64.09c-.25-.08-.31-.29-.11-.46A.86.86,0,0,1,575.89,133.78Z" transform="translate(-565.72 -106.18)"/><path class="cls-12" d="M588.15,139.93a.73.73,0,0,1,.23-.55.27.27,0,0,1,.32-.11.27.27,0,0,1,.2.29.76.76,0,0,1-.21.55c-.1.1-.2.23-.38.17S588.15,140.07,588.15,139.93Z" transform="translate(-565.72 -106.18)"/><path class="cls-12" d="M604.58,117.38a1.27,1.27,0,0,1-.07.24.26.26,0,0,1-.45.06.91.91,0,0,1-.15-.81.29.29,0,0,1,.5,0A1.07,1.07,0,0,1,604.58,117.38Z" transform="translate(-565.72 -106.18)"/><path class="cls-12" d="M602.94,114.28c0-.17,0-.34.22-.38s.31.12.38.27a.73.73,0,0,1,.05.58c0,.09-.06.18-.18.2a.32.32,0,0,1-.31-.1A.74.74,0,0,1,602.94,114.28Z" transform="translate(-565.72 -106.18)"/><path class="cls-12" d="M594,135.86a.94.94,0,0,1,.68.29.23.23,0,0,1-.16.4.92.92,0,0,1-.82-.29.23.23,0,0,1,0-.28C593.74,135.85,593.87,135.86,594,135.86Z" transform="translate(-565.72 -106.18)"/><path class="cls-12" d="M585.31,136.43a.84.84,0,0,1-.64.63.24.24,0,0,1-.28-.3.9.9,0,0,1,.52-.58A.27.27,0,0,1,585.31,136.43Z" transform="translate(-565.72 -106.18)"/><path class="cls-12" d="M578.81,130a.74.74,0,0,1,.15-.5.28.28,0,0,1,.29-.14.27.27,0,0,1,.24.21.82.82,0,0,1-.24.78.26.26,0,0,1-.43-.14A.74.74,0,0,1,578.81,130Z" transform="translate(-565.72 -106.18)"/><path class="cls-12" d="M605.14,126.05a.77.77,0,0,1-.26.58.26.26,0,0,1-.47-.13.81.81,0,0,1,.3-.76.25.25,0,0,1,.27,0A.31.31,0,0,1,605.14,126.05Z" transform="translate(-565.72 -106.18)"/><path class="cls-12" d="M582.73,137.71a.31.31,0,0,1,.36.18c.07.16-.05.27-.18.34a.86.86,0,0,1-.73.15c-.23-.08-.28-.24-.12-.41A1,1,0,0,1,582.73,137.71Z" transform="translate(-565.72 -106.18)"/><path class="cls-12" d="M580,138.32h.15a.32.32,0,0,1,.3.21c0,.13-.05.2-.14.27a.94.94,0,0,1-.89.07.23.23,0,0,1,0-.39A.88.88,0,0,1,580,138.32Z" transform="translate(-565.72 -106.18)"/><path class="cls-12" d="M586.5,130.9c-.06.17,0,.38-.21.52s-.29.1-.39-.06a.75.75,0,0,1,0-.79.27.27,0,0,1,.28-.16.33.33,0,0,1,.25.23C586.47,130.72,586.48,130.81,586.5,130.9Z" transform="translate(-565.72 -106.18)"/><path class="cls-12" d="M590,137.44a.75.75,0,0,1-.32.64.29.29,0,0,1-.32.06.28.28,0,0,1-.15-.3.88.88,0,0,1,.29-.57c.1-.08.18-.19.34-.12A.25.25,0,0,1,590,137.44Z" transform="translate(-565.72 -106.18)"/><path class="cls-12" d="M596.23,136.65a.87.87,0,0,1,.75.53c0,.18-.17.35-.39.29A1,1,0,0,1,596,137C595.88,136.79,596,136.65,596.23,136.65Z" transform="translate(-565.72 -106.18)"/><path class="cls-12" d="M591.2,135.33a1,1,0,0,1-.28.6c-.1.08-.19.15-.33.1a.27.27,0,0,1-.18-.28.89.89,0,0,1,.26-.63c.09-.07.17-.16.31-.1A.36.36,0,0,1,591.2,135.33Z" transform="translate(-565.72 -106.18)"/><path class="cls-12" d="M603,112c0,.18,0,.33-.21.38a.32.32,0,0,1-.37-.17.88.88,0,0,1-.17-.56c0-.12,0-.24.17-.27a.33.33,0,0,1,.37.12A1.08,1.08,0,0,1,603,112Z" transform="translate(-565.72 -106.18)"/><path class="cls-12" d="M586.3,133.64a.64.64,0,0,1-.12.45.26.26,0,0,1-.47,0,.9.9,0,0,1,.07-.84.28.28,0,0,1,.46.07A.49.49,0,0,1,586.3,133.64Z" transform="translate(-565.72 -106.18)"/><path class="cls-12" d="M605.54,123.6a.66.66,0,0,1-.06.33.27.27,0,0,1-.25.18.28.28,0,0,1-.26-.18,1,1,0,0,1-.06-.65.29.29,0,0,1,.26-.25.32.32,0,0,1,.32.21A.7.7,0,0,1,605.54,123.6Z" transform="translate(-565.72 -106.18)"/><path class="cls-12" d="M598.55,138.85c0,.32-.2.43-.43.3a.87.87,0,0,1-.42-.68c0-.22.21-.33.44-.2A.82.82,0,0,1,598.55,138.85Z" transform="translate(-565.72 -106.18)"/><path class="cls-12" d="M573,134.48a.94.94,0,0,1-.68-.27c-.15-.17-.09-.32.12-.39a1,1,0,0,1,.9.27.21.21,0,0,1,0,.24A.34.34,0,0,1,573,134.48Z" transform="translate(-565.72 -106.18)"/><path class="cls-12" d="M605.4,120.54a1.66,1.66,0,0,1,0,.22.28.28,0,0,1-.23.2.23.23,0,0,1-.25-.11.8.8,0,0,1-.19-.69c0-.12.07-.23.22-.25a.32.32,0,0,1,.34.14A.85.85,0,0,1,605.4,120.54Z" transform="translate(-565.72 -106.18)"/><path class="cls-12" d="M580.22,127.67c-.19,0-.3-.14-.22-.29a.77.77,0,0,1,.59-.4c.24,0,.34.11.25.32A.83.83,0,0,1,580.22,127.67Z" transform="translate(-565.72 -106.18)"/><path class="cls-3" d="M598.94,140.35a.23.23,0,0,1,.15-.27.27.27,0,0,1,.31.13.68.68,0,0,1,.15.45.23.23,0,0,1-.43.13A.62.62,0,0,1,598.94,140.35Z" transform="translate(-565.72 -106.18)"/><path class="cls-3" d="M599.54,142.17c0-.14,0-.31.18-.33s.27.13.31.28a.5.5,0,0,1,0,.38c-.08.2-.23.24-.39.08A.56.56,0,0,1,599.54,142.17Z" transform="translate(-565.72 -106.18)"/><path class="cls-12" d="M577.19,139.39c-.16,0-.27,0-.32-.1a.23.23,0,0,1,.1-.29.83.83,0,0,1,.57-.18c.18,0,.26.16.16.3A.64.64,0,0,1,577.19,139.39Z" transform="translate(-565.72 -106.18)"/><path class="cls-12" d="M601.54,109.37c0-.14,0-.3.18-.33s.27.11.32.25a.45.45,0,0,1-.07.52.2.2,0,0,1-.23,0A.47.47,0,0,1,601.54,109.37Z" transform="translate(-565.72 -106.18)"/><path class="cls-12" d="M575.31,140.45c-.14,0-.2-.06-.2-.18a.65.65,0,0,1,.52-.52c.13,0,.22.05.23.19S575.54,140.45,575.31,140.45Z" transform="translate(-565.72 -106.18)"/><path class="cls-12" d="M570.4,133.09a.6.6,0,0,1,.41.12c.09,0,.18.12.15.24a.28.28,0,0,1-.28.19.84.84,0,0,1-.56-.21c-.06-.06-.11-.13-.07-.21S570.26,133.08,570.4,133.09Z" transform="translate(-565.72 -106.18)"/><path class="cls-13" d="M603.63,128.28c.18,0,.27.09.24.24a.69.69,0,0,1-.42.51.2.2,0,0,1-.29-.12C603.07,128.71,603.39,128.28,603.63,128.28Z" transform="translate(-565.72 -106.18)"/><path class="cls-12" d="M587.59,141.88a.75.75,0,0,1,.1-.36.24.24,0,0,1,.24-.13.21.21,0,0,1,.2.18.64.64,0,0,1-.12.59.21.21,0,0,1-.38-.06A.85.85,0,0,1,587.59,141.88Z" transform="translate(-565.72 -106.18)"/><path class="cls-13" d="M568.72,133.33a.79.79,0,0,1-.57.49c-.14,0-.23-.08-.2-.23a.74.74,0,0,1,.51-.49A.21.21,0,0,1,568.72,133.33Z" transform="translate(-565.72 -106.18)"/><path class="cls-13" d="M587.65,143.42c0-.12,0-.22.15-.26s.21,0,.28.12a.87.87,0,0,1,.16.43.23.23,0,0,1-.45.13A.65.65,0,0,1,587.65,143.42Z" transform="translate(-565.72 -106.18)"/><path class="cls-13" d="M574.27,142a.43.43,0,0,1-.14.35.2.2,0,0,1-.23.06.18.18,0,0,1-.12-.2,1,1,0,0,1,.1-.31c0-.08.12-.19.25-.15S574.28,141.85,574.27,142Z" transform="translate(-565.72 -106.18)"/><path class="cls-13" d="M588.9,145.21c0,.12,0,.19-.18.18s-.37-.26-.37-.44.07-.2.2-.19S588.91,145,588.9,145.21Z" transform="translate(-565.72 -106.18)"/><path class="cls-13" d="M567.72,135.58a.44.44,0,0,1-.08.25c0,.09-.12.2-.26.16s-.17-.18-.15-.3a.68.68,0,0,1,.07-.2c.05-.1.11-.2.26-.17S567.73,135.46,567.72,135.58Z" transform="translate(-565.72 -106.18)"/><path class="cls-13" d="M600.14,143.82c0,.15,0,.35-.2.36s-.24-.2-.24-.34,0-.36.22-.36S600.15,143.66,600.14,143.82Z" transform="translate(-565.72 -106.18)"/><path class="cls-12" d="M578.51,132.14a.82.82,0,0,1-.68.67c-.2,0-.31-.11-.26-.3a.88.88,0,0,1,.6-.6A.25.25,0,0,1,578.51,132.14Z" transform="translate(-565.72 -106.18)"/><path class="cls-12" d="M590.8,130.89c0,.11,0,.24-.18.28a.25.25,0,0,1-.3-.15.76.76,0,0,1-.12-.53.2.2,0,0,1,.32-.12C590.74,130.48,590.73,130.7,590.8,130.89Z" transform="translate(-565.72 -106.18)"/></svg>